<?xml version="1.0" encoding="utf-8"?>
<!-- Generator: Adobe Illustrator 25.0.0, SVG Export Plug-In . SVG Version: 6.00 Build 0)  -->
<svg version="1.1" id="Layer_1" xmlns="http://www.w3.org/2000/svg" xmlns:xlink="http://www.w3.org/1999/xlink" x="0px" y="0px"
	 viewBox="0 0 1419 1443" style="enable-background:new 0 0 1419 1443;" xml:space="preserve">
<style type="text/css">
	.st0{fill:#212529;stroke:#FFFFFF;stroke-width:21;stroke-miterlimit:10;}
</style>
<path class="st0" d="M688.1,340.3l21.3,25.4l23-25.3c64.3-69.1,153.4-100.5,240.9-84.4c132.3,24.3,229.2,150.4,229.2,298.2v12.3
	c0,87.8-33,171.7-91.4,231.6l-346.9,356.8c-14.4,14.8-33.4,23.1-53.2,23.1c-19.8,0-38.8-8.2-53.2-23.1L311.1,798
	c-58.3-59.9-91.4-143.9-91.4-231.6v-12.3c0-147.8,97-273.9,229.2-298.2C534.8,239.8,625.6,271.3,688.1,340.3
	C686.4,340.3,688.1,340.3,688.1,340.3L688.1,340.3z M709.4,509.3l-86.4-99c-41.7-44-100.8-64.9-159-54.3
	c-87.7,16.1-152.1,100-152.1,198.1v12.3c0,59.6,22.5,116.8,62.1,157.4l337.2,346.9l337.3-346.9c39.5-40.6,62-97.7,62-157.4v-12.3
	c0-98.1-64.5-182-152.2-198.1c-58.2-10.7-117.3,10.2-159,54.3L709.4,509.3z"/>
<path class="st0" d="M1057.7,648.8c50.3-22.2,158.9-32.9,184.4,0.8c26.3,34.6-40.6,100.2-90.9,122.4L980,847.6l-19.1,234.4
	c-1.1,13.3-12.2,26-29.1,33.5l-82.6,36.4c-15.6,6.9-34.4,2-37.6-9.6l-53.5-196.9L607,1012.1l-21.4,83.4c-1.5,5.7-6.8,11.2-14.2,14.4
	l-61.8,27.2c-11.5,5.1-25.1,3-30.8-4.4c-1-1.2-1.7-2.7-2.1-4.1l-34.2-126.3l-126.8-85.5c-1.6-1-2.6-2.2-3.6-3.4
	c-5.7-7.5-1-17.5,10.4-22.5l61.8-27.2c7.3-3.2,16.2-4.1,23.5-2.2l105.6,27.4l151.2-66.8L467.2,689c-11.8-7.9-8-22.7,7.6-29.6
	l82.6-36.4c16.9-7.5,37.1-8.3,52.7-2.6l276.3,104L1057.7,648.8L1057.7,648.8z"/>
</svg>
